<svg xmlns="http://www.w3.org/2000/svg" xmlns:xlink="http://www.w3.org/1999/xlink" width="500" zoomAndPan="magnify" viewBox="0 0 375 374.999991" height="500" preserveAspectRatio="xMidYMid meet"><defs><clipPath id="23216278e0"><path d="M 187.5 0 C 83.945312 0 0 83.945312 0 187.5 C 0 291.054688 83.945312 375 187.5 375 C 291.054688 375 375 291.054688 375 187.5 C 375 83.945312 291.054688 0 187.5 0 Z M 187.5 0 "></path></clipPath><clipPath id="bbe4c395ec"><path d="M 187.5 0 C 83.945312 0 0 83.945312 0 187.5 C 0 291.054688 83.945312 375 187.5 375 C 291.054688 375 375 291.054688 375 187.5 C 375 83.945312 291.054688 0 187.5 0 Z M 187.5 0 "></path></clipPath><clipPath id="83c15be95a"><rect x="0" width="375" y="0" height="375"></rect></clipPath><clipPath id="862d1af29c"><path d="M 90.738281 171 L 134 171 L 134 269 L 90.738281 269 Z M 90.738281 171 "></path></clipPath><clipPath id="4b74769de0"><path d="M 142 101.019531 L 284.238281 101.019531 L 284.238281 274 L 142 274 Z M 142 101.019531 "></path></clipPath></defs><g id="6f83d88eda"><g clip-rule="nonzero" clip-path="url(#23216278e0)"><g transform="matrix(1,0,0,1,0,0)"><g clip-path="url(#83c15be95a)"><g clip-rule="nonzero" clip-path="url(#bbe4c395ec)"><rect x="0" width="375" height="375" y="0" style="fill:#ffd0d0;fill-opacity:1;stroke:none;"></rect></g></g></g></g><g clip-rule="nonzero" clip-path="url(#862d1af29c)"><path style=" stroke:none;fill-rule:nonzero;fill:#db1111;fill-opacity:1;" d="M 128.585938 171.210938 L 96.265625 171.210938 C 93.246094 171.210938 90.875 173.578125 90.875 176.597656 L 90.875 262.789062 C 90.875 265.804688 93.246094 268.175781 96.265625 268.175781 L 128.585938 268.175781 C 131.605469 268.175781 133.96875 265.804688 133.96875 262.789062 L 133.96875 176.597656 C 133.972656 173.578125 131.605469 171.210938 128.585938 171.210938 Z M 128.585938 171.210938 "></path></g><g clip-rule="nonzero" clip-path="url(#4b74769de0)"><path style=" stroke:none;fill-rule:nonzero;fill:#db1111;fill-opacity:1;" d="M 284.433594 181.421875 C 284.433594 172.640625 278.40625 163.757812 266.894531 163.757812 L 214.707031 163.757812 C 222.164062 150.421875 224.355469 131.664062 219.171875 117.9375 C 215.363281 107.84375 208.089844 101.953125 198.675781 101.355469 L 198.523438 101.339844 C 192.394531 100.964844 187.09375 105.554688 186.582031 111.671875 C 185.242188 125.285156 179.277344 149.363281 170.726562 157.910156 C 163.53125 165.109375 157.371094 168.125 147.15625 173.117188 C 145.679688 173.839844 144.066406 174.628906 142.355469 175.480469 C 142.386719 175.851562 142.40625 176.21875 142.40625 176.597656 L 142.40625 261.910156 C 143.640625 262.332031 144.855469 262.75 146.050781 263.160156 C 162.90625 268.96875 177.472656 273.984375 199.738281 273.984375 L 241.929688 273.984375 C 253.445312 273.984375 259.46875 265.097656 259.46875 256.324219 C 259.46875 253.71875 258.941406 251.105469 257.894531 248.714844 C 261.726562 248.027344 265.085938 246.179688 267.570312 243.359375 C 270.394531 240.152344 271.949219 235.886719 271.949219 231.355469 C 271.949219 228.757812 271.421875 226.148438 270.378906 223.761719 C 279.625 222.167969 284.4375 214.234375 284.4375 206.390625 C 284.4375 201.839844 282.816406 197.261719 279.652344 193.90625 C 282.808594 190.550781 284.433594 185.96875 284.433594 181.421875 Z M 284.433594 181.421875 "></path></g></g></svg>