<svg xmlns="http://www.w3.org/2000/svg" xmlns:xlink="http://www.w3.org/1999/xlink" width="500" zoomAndPan="magnify" viewBox="0 0 375 374.999991" height="500" preserveAspectRatio="xMidYMid meet"><g id="d5e98d35d4"><path style=" stroke:none;fill-rule:nonzero;fill:#db0f0f;fill-opacity:1;" d="M 134.765625 298.828125 C 131.53125 298.828125 128.90625 301.453125 128.90625 304.6875 L 128.90625 339.84375 L 105.46875 339.84375 C 102.234375 339.84375 99.609375 342.46875 99.609375 345.703125 C 99.609375 348.9375 102.234375 351.5625 105.46875 351.5625 L 134.765625 351.5625 C 138 351.5625 140.625 348.9375 140.625 345.703125 L 140.625 304.6875 C 140.625 301.453125 138 298.828125 134.765625 298.828125 Z M 134.765625 298.828125 "></path><path style=" stroke:none;fill-rule:nonzero;fill:#db0f0f;fill-opacity:1;" d="M 251.953125 345.703125 C 251.953125 348.9375 254.578125 351.5625 257.8125 351.5625 L 287.109375 351.5625 C 290.34375 351.5625 292.96875 348.9375 292.96875 345.703125 L 292.96875 304.6875 C 292.96875 301.453125 290.34375 298.828125 287.109375 298.828125 C 283.875 298.828125 281.25 301.453125 281.25 304.6875 L 281.25 339.84375 L 257.8125 339.84375 C 254.578125 339.84375 251.953125 342.46875 251.953125 345.703125 Z M 251.953125 345.703125 "></path><path style=" stroke:none;fill-rule:nonzero;fill:#db0f0f;fill-opacity:1;" d="M 134.765625 158.203125 C 131.53125 158.203125 128.90625 160.828125 128.90625 164.0625 L 128.90625 199.21875 L 105.46875 199.21875 C 102.234375 199.21875 99.609375 201.84375 99.609375 205.078125 C 99.609375 208.3125 102.234375 210.9375 105.46875 210.9375 L 134.765625 210.9375 C 138 210.9375 140.625 208.3125 140.625 205.078125 L 140.625 164.0625 C 140.625 160.828125 138 158.203125 134.765625 158.203125 Z M 134.765625 158.203125 "></path><path style=" stroke:none;fill-rule:nonzero;fill:#db0f0f;fill-opacity:1;" d="M 181.640625 87.890625 C 184.875 87.890625 187.5 85.265625 187.5 82.03125 L 187.5 52.734375 C 187.5 49.5 184.875 46.875 181.640625 46.875 C 178.40625 46.875 175.78125 49.5 175.78125 52.734375 L 175.78125 82.03125 C 175.78125 85.265625 178.40625 87.890625 181.640625 87.890625 Z M 181.640625 87.890625 "></path><path style=" stroke:none;fill-rule:nonzero;fill:#db0f0f;fill-opacity:1;" d="M 333.984375 257.8125 C 330.75 257.8125 328.125 260.4375 328.125 263.671875 L 328.125 292.96875 C 328.125 296.203125 330.75 298.828125 333.984375 298.828125 C 337.21875 298.828125 339.84375 296.203125 339.84375 292.96875 L 339.84375 263.671875 C 339.84375 260.4375 337.21875 257.8125 333.984375 257.8125 Z M 333.984375 257.8125 "></path><path style=" stroke:none;fill-rule:nonzero;fill:#db0f0f;fill-opacity:1;" d="M 364.15625 240.878906 L 351.5625 231.441406 L 351.5625 218.847656 C 351.5625 211.847656 349.617188 205.007812 345.9375 199.0625 C 342.253906 193.113281 337 188.316406 330.746094 185.1875 C 321.898438 180.765625 316.40625 171.882812 316.40625 162.011719 L 316.40625 156.203125 C 319.261719 154.828125 321.621094 153.1875 324.652344 150.15625 C 332.144531 142.664062 336.269531 132.699219 336.269531 122.109375 C 336.269531 111.621094 332.148438 101.6875 324.644531 94.109375 L 316.800781 86.300781 C 316.800781 86.300781 364.324219 60.4375 364.726562 60.03125 C 371.351562 53.371094 375 44.535156 375 35.15625 C 375 25.773438 371.351562 16.9375 364.726562 10.277344 C 358.128906 3.648438 349.34375 0 339.996094 0 C 330.644531 0 321.800781 3.648438 315.207031 10.28125 C 314.804688 10.683594 289.066406 58.59375 289.066406 58.59375 L 281.234375 50.757812 C 271.363281 40.890625 257.199219 37.039062 243.894531 40.25 C 239.441406 31.789062 228.144531 17.578125 202.324219 17.578125 L 131.835938 17.578125 C 120.796875 17.578125 110.277344 22.839844 103.703125 31.652344 C 99.328125 37.515625 92.324219 41.015625 84.960938 41.015625 C 61.71875 41.015625 42.683594 59.164062 41.164062 82.03125 L 5.859375 82.03125 C 2.625 82.03125 0 84.65625 0 87.890625 L 0 369.140625 C 0 372.375 2.625 375 5.859375 375 L 310.546875 375 C 313.78125 375 316.40625 372.375 316.40625 369.140625 L 316.40625 362.390625 L 324.9375 360.976562 C 332.394531 359.71875 339.171875 355.867188 344.027344 350.132812 C 348.882812 344.386719 351.5625 337.070312 351.5625 329.53125 C 351.5625 323.734375 354.882812 318.347656 360.023438 315.796875 C 369.261719 311.214844 375 301.929688 375 291.5625 L 375 262.558594 C 375 254.128906 370.957031 246.035156 364.15625 240.878906 Z M 290.507812 76.605469 L 298.804688 84.902344 L 278.101562 105.601562 C 275.832031 107.871094 272.019531 107.820312 269.804688 105.601562 C 267.519531 103.316406 267.519531 99.59375 269.804688 97.304688 Z M 324.101562 17.980469 C 328.410156 13.9375 334.023438 11.71875 339.996094 11.71875 C 346.203125 11.71875 352.039062 14.144531 356.417969 18.546875 C 360.84375 22.992188 363.28125 28.894531 363.28125 35.15625 C 363.28125 41.148438 361.050781 46.804688 356.980469 51.179688 L 308.140625 77.667969 L 297.726562 67.25 L 324.097656 17.980469 Z M 272.949219 59.046875 L 282.222656 68.320312 L 261.519531 89.019531 C 254.664062 95.878906 254.664062 107.035156 261.519531 113.886719 C 264.855469 117.226562 269.28125 119.0625 273.984375 119.0625 C 278.648438 119.0625 283.054688 117.222656 286.390625 113.886719 L 307.101562 93.179688 L 316.347656 102.386719 C 321.640625 107.726562 324.550781 114.730469 324.550781 122.109375 C 324.550781 129.574219 321.644531 136.589844 316.367188 141.871094 C 313.5625 144.671875 312.164062 145.453125 308.4375 146.875 L 204.203125 187.085938 C 199.148438 188.910156 194.46875 187.644531 191.117188 184.296875 C 187.710938 180.886719 186.601562 175.78125 188.292969 171.296875 L 227.136719 68.886719 C 228.546875 65.183594 230.742188 61.785156 233.484375 59.046875 C 236.203125 56.320312 239.347656 54.234375 242.816406 52.84375 C 253.207031 48.695312 265.027344 51.132812 272.949219 59.046875 Z M 11.71875 93.75 L 152.34375 93.75 L 152.34375 222.65625 L 11.71875 222.65625 Z M 11.71875 234.375 L 152.34375 234.375 L 152.34375 363.28125 L 11.71875 363.28125 Z M 304.6875 363.28125 L 164.0625 363.28125 L 164.0625 234.375 L 304.6875 234.375 Z M 363.28125 291.5625 C 363.28125 297.355469 359.960938 302.746094 354.816406 305.296875 C 345.582031 309.878906 339.84375 319.164062 339.84375 329.53125 C 339.84375 334.300781 338.148438 338.929688 335.078125 342.5625 C 332.011719 346.1875 327.71875 348.621094 323.007812 349.417969 L 316.40625 350.511719 L 316.40625 228.515625 C 316.40625 225.28125 313.78125 222.65625 310.546875 222.65625 L 292.96875 222.65625 L 292.96875 187.5 C 292.96875 184.265625 290.34375 181.640625 287.109375 181.640625 C 283.875 181.640625 281.25 184.265625 281.25 187.5 L 281.25 222.65625 L 263.671875 222.65625 L 263.671875 205.078125 C 263.671875 201.84375 261.046875 199.21875 257.8125 199.21875 C 254.578125 199.21875 251.953125 201.84375 251.953125 205.078125 L 251.953125 222.65625 L 234.375 222.65625 L 234.375 210.9375 C 234.375 207.703125 231.75 205.078125 228.515625 205.078125 C 225.28125 205.078125 222.65625 207.703125 222.65625 210.9375 L 222.65625 222.65625 L 164.0625 222.65625 L 164.0625 87.890625 C 164.0625 84.65625 161.4375 82.03125 158.203125 82.03125 L 152.34375 82.03125 L 152.34375 58.59375 C 152.34375 55.359375 149.71875 52.734375 146.484375 52.734375 C 143.25 52.734375 140.625 55.359375 140.625 58.59375 L 140.625 82.03125 L 123.046875 82.03125 L 123.046875 64.453125 C 123.046875 61.21875 120.421875 58.59375 117.1875 58.59375 C 113.953125 58.59375 111.328125 61.21875 111.328125 64.453125 L 111.328125 82.03125 L 52.882812 82.03125 C 54.371094 65.628906 68.179688 52.734375 84.960938 52.734375 C 96 52.734375 106.519531 47.472656 113.09375 38.660156 C 117.46875 32.796875 124.472656 29.296875 131.835938 29.296875 L 202.324219 29.296875 C 221.066406 29.296875 229.5 38.644531 233.007812 44.71875 C 230.195312 46.394531 227.566406 48.386719 225.195312 50.757812 C 221.300781 54.652344 218.183594 59.476562 216.179688 64.71875 L 177.332031 167.148438 C 174.011719 175.941406 176.171875 185.921875 182.832031 192.582031 C 187.375 197.125 193.402344 199.628906 199.804688 199.628906 C 202.609375 199.628906 205.351562 199.128906 208.300781 198.066406 L 304.6875 160.882812 L 304.6875 162.011719 C 304.6875 176.355469 312.664062 189.25 325.503906 195.671875 C 329.816406 197.824219 333.4375 201.132812 335.976562 205.234375 C 338.503906 209.320312 339.84375 214.027344 339.84375 218.847656 L 339.84375 234.375 C 339.84375 236.222656 340.714844 237.957031 342.191406 239.066406 L 357.105469 250.238281 C 360.972656 253.167969 363.28125 257.777344 363.28125 262.558594 Z M 363.28125 291.5625 "></path><path style=" stroke:none;fill-rule:nonzero;fill:#db0f0f;fill-opacity:1;" d="M 87.890625 345.703125 C 87.890625 346.085938 87.851562 346.46875 87.777344 346.847656 C 87.703125 347.222656 87.59375 347.589844 87.445312 347.945312 C 87.296875 348.300781 87.117188 348.636719 86.902344 348.957031 C 86.6875 349.277344 86.445312 349.574219 86.175781 349.847656 C 85.902344 350.117188 85.605469 350.359375 85.285156 350.574219 C 84.964844 350.789062 84.628906 350.96875 84.273438 351.117188 C 83.917969 351.261719 83.550781 351.375 83.175781 351.449219 C 82.796875 351.523438 82.414062 351.5625 82.03125 351.5625 C 81.648438 351.5625 81.265625 351.523438 80.886719 351.449219 C 80.511719 351.375 80.144531 351.261719 79.789062 351.117188 C 79.433594 350.96875 79.097656 350.789062 78.777344 350.574219 C 78.457031 350.359375 78.160156 350.117188 77.886719 349.847656 C 77.617188 349.574219 77.375 349.277344 77.160156 348.957031 C 76.945312 348.636719 76.765625 348.300781 76.617188 347.945312 C 76.46875 347.589844 76.359375 347.222656 76.285156 346.847656 C 76.210938 346.46875 76.171875 346.085938 76.171875 345.703125 C 76.171875 345.320312 76.210938 344.9375 76.285156 344.558594 C 76.359375 344.183594 76.46875 343.816406 76.617188 343.460938 C 76.765625 343.105469 76.945312 342.769531 77.160156 342.449219 C 77.375 342.128906 77.617188 341.832031 77.886719 341.558594 C 78.160156 341.289062 78.457031 341.042969 78.777344 340.832031 C 79.097656 340.617188 79.433594 340.4375 79.789062 340.289062 C 80.144531 340.140625 80.511719 340.03125 80.886719 339.957031 C 81.265625 339.882812 81.648438 339.84375 82.03125 339.84375 C 82.414062 339.84375 82.796875 339.882812 83.175781 339.957031 C 83.550781 340.03125 83.917969 340.140625 84.273438 340.289062 C 84.628906 340.4375 84.964844 340.617188 85.285156 340.832031 C 85.605469 341.046875 85.902344 341.289062 86.175781 341.558594 C 86.445312 341.832031 86.6875 342.128906 86.902344 342.449219 C 87.117188 342.769531 87.296875 343.105469 87.445312 343.460938 C 87.59375 343.816406 87.703125 344.183594 87.777344 344.558594 C 87.851562 344.9375 87.890625 345.320312 87.890625 345.703125 Z M 87.890625 345.703125 "></path><path style=" stroke:none;fill-rule:nonzero;fill:#db0f0f;fill-opacity:1;" d="M 240.234375 345.703125 C 240.234375 346.085938 240.195312 346.46875 240.121094 346.847656 C 240.046875 347.222656 239.933594 347.589844 239.789062 347.945312 C 239.640625 348.300781 239.460938 348.636719 239.246094 348.957031 C 239.03125 349.277344 238.789062 349.574219 238.519531 349.847656 C 238.246094 350.117188 237.949219 350.359375 237.628906 350.574219 C 237.308594 350.789062 236.972656 350.96875 236.617188 351.117188 C 236.261719 351.261719 235.894531 351.375 235.519531 351.449219 C 235.140625 351.523438 234.757812 351.5625 234.375 351.5625 C 233.992188 351.5625 233.609375 351.523438 233.230469 351.449219 C 232.855469 351.375 232.488281 351.261719 232.132812 351.117188 C 231.777344 350.96875 231.441406 350.789062 231.121094 350.574219 C 230.800781 350.359375 230.503906 350.117188 230.230469 349.847656 C 229.960938 349.574219 229.714844 349.277344 229.503906 348.957031 C 229.289062 348.636719 229.109375 348.300781 228.960938 347.945312 C 228.8125 347.589844 228.703125 347.222656 228.628906 346.847656 C 228.554688 346.46875 228.515625 346.085938 228.515625 345.703125 C 228.515625 345.320312 228.554688 344.9375 228.628906 344.558594 C 228.703125 344.183594 228.8125 343.816406 228.960938 343.460938 C 229.109375 343.105469 229.289062 342.769531 229.503906 342.449219 C 229.71875 342.128906 229.960938 341.832031 230.230469 341.558594 C 230.503906 341.289062 230.800781 341.042969 231.121094 340.832031 C 231.441406 340.617188 231.777344 340.4375 232.132812 340.289062 C 232.488281 340.140625 232.855469 340.03125 233.230469 339.957031 C 233.609375 339.882812 233.992188 339.84375 234.375 339.84375 C 234.757812 339.84375 235.140625 339.882812 235.519531 339.957031 C 235.894531 340.03125 236.261719 340.140625 236.617188 340.289062 C 236.972656 340.4375 237.308594 340.617188 237.628906 340.832031 C 237.949219 341.046875 238.246094 341.289062 238.519531 341.558594 C 238.789062 341.832031 239.03125 342.128906 239.246094 342.449219 C 239.460938 342.769531 239.640625 343.105469 239.789062 343.460938 C 239.933594 343.816406 240.046875 344.183594 240.121094 344.558594 C 240.195312 344.9375 240.234375 345.320312 240.234375 345.703125 Z M 240.234375 345.703125 "></path><path style=" stroke:none;fill-rule:nonzero;fill:#db0f0f;fill-opacity:1;" d="M 87.890625 205.078125 C 87.890625 205.460938 87.851562 205.84375 87.777344 206.222656 C 87.703125 206.597656 87.59375 206.964844 87.445312 207.320312 C 87.296875 207.675781 87.117188 208.011719 86.902344 208.332031 C 86.6875 208.652344 86.445312 208.949219 86.175781 209.222656 C 85.902344 209.492188 85.605469 209.734375 85.285156 209.949219 C 84.964844 210.164062 84.628906 210.34375 84.273438 210.492188 C 83.917969 210.636719 83.550781 210.75 83.175781 210.824219 C 82.796875 210.898438 82.414062 210.9375 82.03125 210.9375 C 81.648438 210.9375 81.265625 210.898438 80.886719 210.824219 C 80.511719 210.75 80.144531 210.636719 79.789062 210.492188 C 79.433594 210.34375 79.097656 210.164062 78.777344 209.949219 C 78.457031 209.734375 78.160156 209.492188 77.886719 209.222656 C 77.617188 208.949219 77.375 208.652344 77.160156 208.332031 C 76.945312 208.011719 76.765625 207.675781 76.617188 207.320312 C 76.46875 206.964844 76.359375 206.597656 76.285156 206.222656 C 76.210938 205.84375 76.171875 205.460938 76.171875 205.078125 C 76.171875 204.695312 76.210938 204.3125 76.285156 203.933594 C 76.359375 203.558594 76.46875 203.191406 76.617188 202.835938 C 76.765625 202.480469 76.945312 202.144531 77.160156 201.824219 C 77.375 201.503906 77.617188 201.207031 77.886719 200.933594 C 78.160156 200.664062 78.457031 200.421875 78.777344 200.207031 C 79.097656 199.992188 79.433594 199.8125 79.789062 199.664062 C 80.144531 199.515625 80.511719 199.40625 80.886719 199.332031 C 81.265625 199.257812 81.648438 199.21875 82.03125 199.21875 C 82.414062 199.21875 82.796875 199.257812 83.175781 199.332031 C 83.550781 199.40625 83.917969 199.515625 84.273438 199.664062 C 84.628906 199.8125 84.964844 199.992188 85.285156 200.207031 C 85.605469 200.421875 85.902344 200.664062 86.175781 200.933594 C 86.445312 201.207031 86.6875 201.503906 86.902344 201.824219 C 87.117188 202.144531 87.296875 202.480469 87.445312 202.835938 C 87.59375 203.191406 87.703125 203.558594 87.777344 203.933594 C 87.851562 204.3125 87.890625 204.695312 87.890625 205.078125 Z M 87.890625 205.078125 "></path><path style=" stroke:none;fill-rule:nonzero;fill:#db0f0f;fill-opacity:1;" d="M 187.5 105.46875 C 187.5 105.851562 187.460938 106.234375 187.386719 106.613281 C 187.3125 106.988281 187.203125 107.355469 187.054688 107.710938 C 186.90625 108.066406 186.726562 108.402344 186.511719 108.722656 C 186.296875 109.042969 186.054688 109.339844 185.785156 109.613281 C 185.511719 109.882812 185.214844 110.125 184.894531 110.339844 C 184.574219 110.554688 184.238281 110.734375 183.882812 110.882812 C 183.527344 111.03125 183.160156 111.140625 182.785156 111.214844 C 182.40625 111.289062 182.023438 111.328125 181.640625 111.328125 C 181.257812 111.328125 180.875 111.289062 180.496094 111.214844 C 180.121094 111.140625 179.753906 111.03125 179.398438 110.882812 C 179.042969 110.734375 178.707031 110.554688 178.386719 110.339844 C 178.066406 110.125 177.769531 109.882812 177.496094 109.613281 C 177.226562 109.339844 176.984375 109.042969 176.769531 108.722656 C 176.554688 108.402344 176.375 108.066406 176.226562 107.710938 C 176.078125 107.355469 175.96875 106.988281 175.894531 106.613281 C 175.820312 106.234375 175.78125 105.851562 175.78125 105.46875 C 175.78125 105.085938 175.820312 104.703125 175.894531 104.324219 C 175.96875 103.949219 176.078125 103.582031 176.226562 103.226562 C 176.375 102.871094 176.554688 102.535156 176.769531 102.214844 C 176.984375 101.894531 177.226562 101.597656 177.496094 101.324219 C 177.769531 101.054688 178.066406 100.8125 178.386719 100.597656 C 178.707031 100.382812 179.042969 100.203125 179.398438 100.054688 C 179.753906 99.90625 180.121094 99.796875 180.496094 99.722656 C 180.875 99.648438 181.257812 99.609375 181.640625 99.609375 C 182.023438 99.609375 182.40625 99.648438 182.785156 99.722656 C 183.160156 99.796875 183.527344 99.90625 183.882812 100.054688 C 184.238281 100.203125 184.574219 100.382812 184.894531 100.597656 C 185.214844 100.8125 185.511719 101.054688 185.785156 101.324219 C 186.054688 101.597656 186.296875 101.894531 186.511719 102.214844 C 186.726562 102.535156 186.90625 102.871094 187.054688 103.226562 C 187.203125 103.582031 187.3125 103.949219 187.386719 104.324219 C 187.460938 104.703125 187.5 105.085938 187.5 105.46875 Z M 187.5 105.46875 "></path><path style=" stroke:none;fill-rule:nonzero;fill:#db0f0f;fill-opacity:1;" d="M 345.414062 35.15625 C 345.414062 35.539062 345.378906 35.921875 345.304688 36.300781 C 345.230469 36.675781 345.117188 37.042969 344.972656 37.398438 C 344.824219 37.753906 344.644531 38.089844 344.433594 38.410156 C 344.222656 38.730469 343.980469 39.027344 343.707031 39.300781 C 343.4375 39.570312 343.144531 39.8125 342.824219 40.027344 C 342.507812 40.242188 342.171875 40.421875 341.816406 40.570312 C 341.464844 40.71875 341.101562 40.828125 340.722656 40.902344 C 340.347656 40.976562 339.96875 41.015625 339.585938 41.015625 C 339.203125 41.015625 338.824219 40.976562 338.449219 40.902344 C 338.074219 40.828125 337.710938 40.71875 337.355469 40.570312 C 337.003906 40.421875 336.667969 40.242188 336.347656 40.027344 C 336.03125 39.8125 335.738281 39.570312 335.464844 39.300781 C 335.195312 39.027344 334.953125 38.730469 334.742188 38.410156 C 334.527344 38.089844 334.347656 37.753906 334.203125 37.398438 C 334.054688 37.042969 333.945312 36.675781 333.871094 36.300781 C 333.796875 35.921875 333.757812 35.539062 333.757812 35.15625 C 333.757812 34.773438 333.796875 34.390625 333.871094 34.011719 C 333.945312 33.636719 334.054688 33.269531 334.203125 32.914062 C 334.347656 32.558594 334.527344 32.222656 334.742188 31.902344 C 334.953125 31.582031 335.195312 31.285156 335.464844 31.011719 C 335.738281 30.742188 336.03125 30.5 336.347656 30.285156 C 336.667969 30.070312 337.003906 29.890625 337.355469 29.742188 C 337.710938 29.59375 338.074219 29.484375 338.449219 29.410156 C 338.824219 29.335938 339.203125 29.296875 339.585938 29.296875 C 339.96875 29.296875 340.347656 29.335938 340.722656 29.410156 C 341.101562 29.484375 341.464844 29.59375 341.816406 29.742188 C 342.171875 29.890625 342.507812 30.070312 342.824219 30.285156 C 343.144531 30.5 343.4375 30.742188 343.707031 31.011719 C 343.980469 31.285156 344.222656 31.582031 344.433594 31.902344 C 344.644531 32.222656 344.824219 32.558594 344.972656 32.914062 C 345.117188 33.269531 345.230469 33.636719 345.304688 34.011719 C 345.378906 34.390625 345.414062 34.773438 345.414062 35.15625 Z M 345.414062 35.15625 "></path></g></svg>