<svg xmlns="http://www.w3.org/2000/svg" xmlns:xlink="http://www.w3.org/1999/xlink" width="500" zoomAndPan="magnify" viewBox="0 0 375 374.999991" height="500" preserveAspectRatio="xMidYMid meet"><defs><clipPath id="1f3347f623"><path d="M 187.5 0 C 83.945312 0 0 83.945312 0 187.5 C 0 291.054688 83.945312 375 187.5 375 C 291.054688 375 375 291.054688 375 187.5 C 375 83.945312 291.054688 0 187.5 0 Z M 187.5 0 "></path></clipPath><clipPath id="23ca059e0a"><path d="M 66.804688 133 L 89 133 L 89 162 L 66.804688 162 Z M 66.804688 133 "></path></clipPath><clipPath id="c5c981c7a0"><path d="M 66.804688 207 L 89 207 L 89 236 L 66.804688 236 Z M 66.804688 207 "></path></clipPath><clipPath id="b6b42cf7fd"><path d="M 139 92.4375 L 177 92.4375 L 177 276.1875 L 139 276.1875 Z M 139 92.4375 "></path></clipPath><clipPath id="24571a1575"><path d="M 80 92.4375 L 119 92.4375 L 119 276.1875 L 80 276.1875 Z M 80 92.4375 "></path></clipPath><clipPath id="8487829ba5"><path d="M 197 92.4375 L 236 92.4375 L 236 276.1875 L 197 276.1875 Z M 197 92.4375 "></path></clipPath><clipPath id="65393934aa"><path d="M 256 92.4375 L 295 92.4375 L 295 276.1875 L 256 276.1875 Z M 256 92.4375 "></path></clipPath><clipPath id="2bcd6e07d4"><path d="M 66.804688 267 L 308 267 L 308 276.1875 L 66.804688 276.1875 Z M 66.804688 267 "></path></clipPath></defs><g id="94f2c3a371"><g clip-rule="nonzero" clip-path="url(#1f3347f623)"><rect x="0" width="375" y="0" height="374.999991" style="fill:#db0f0f;fill-opacity:1;stroke:none;"></rect></g><path style=" stroke:none;fill-rule:nonzero;fill:#ffffff;fill-opacity:1;" d="M 303.601562 161.152344 L 290.121094 161.152344 C 287.828125 161.152344 285.96875 159.292969 285.96875 157 C 285.96875 154.703125 287.828125 152.84375 290.121094 152.84375 L 299.449219 152.84375 L 299.449219 141.625 L 290.121094 141.625 C 287.828125 141.625 285.96875 139.765625 285.96875 137.472656 C 285.96875 135.175781 287.828125 133.316406 290.121094 133.316406 L 303.601562 133.316406 C 305.894531 133.316406 307.753906 135.175781 307.753906 137.472656 L 307.753906 157 C 307.753906 159.292969 305.894531 161.152344 303.601562 161.152344 Z M 303.601562 161.152344 "></path><path style=" stroke:none;fill-rule:nonzero;fill:#ffffff;fill-opacity:1;" d="M 260.71875 161.152344 L 231.375 161.152344 C 229.078125 161.152344 227.21875 159.292969 227.21875 157 C 227.21875 154.703125 229.078125 152.84375 231.375 152.84375 L 260.71875 152.84375 C 263.015625 152.84375 264.875 154.703125 264.875 157 C 264.875 159.292969 263.011719 161.152344 260.71875 161.152344 Z M 260.71875 161.152344 "></path><path style=" stroke:none;fill-rule:nonzero;fill:#ffffff;fill-opacity:1;" d="M 260.71875 141.625 L 231.375 141.625 C 229.078125 141.625 227.21875 139.765625 227.21875 137.472656 C 227.21875 135.175781 229.078125 133.316406 231.375 133.316406 L 260.71875 133.316406 C 263.015625 133.316406 264.875 135.175781 264.875 137.472656 C 264.875 139.765625 263.011719 141.625 260.71875 141.625 Z M 260.71875 141.625 "></path><path style=" stroke:none;fill-rule:nonzero;fill:#ffffff;fill-opacity:1;" d="M 201.96875 161.152344 L 172.625 161.152344 C 170.332031 161.152344 168.46875 159.292969 168.46875 157 C 168.46875 154.703125 170.332031 152.84375 172.625 152.84375 L 201.96875 152.84375 C 204.265625 152.84375 206.125 154.703125 206.125 157 C 206.125 159.292969 204.265625 161.152344 201.96875 161.152344 Z M 201.96875 161.152344 "></path><path style=" stroke:none;fill-rule:nonzero;fill:#ffffff;fill-opacity:1;" d="M 201.96875 141.625 L 172.625 141.625 C 170.332031 141.625 168.46875 139.765625 168.46875 137.472656 C 168.46875 135.175781 170.332031 133.316406 172.625 133.316406 L 201.96875 133.316406 C 204.265625 133.316406 206.125 135.175781 206.125 137.472656 C 206.125 139.765625 204.265625 141.625 201.96875 141.625 Z M 201.96875 141.625 "></path><path style=" stroke:none;fill-rule:nonzero;fill:#ffffff;fill-opacity:1;" d="M 143.222656 161.152344 L 113.875 161.152344 C 111.582031 161.152344 109.722656 159.292969 109.722656 157 C 109.722656 154.703125 111.582031 152.84375 113.875 152.84375 L 143.222656 152.84375 C 145.515625 152.84375 147.375 154.703125 147.375 157 C 147.375 159.292969 145.515625 161.152344 143.222656 161.152344 Z M 143.222656 161.152344 "></path><path style=" stroke:none;fill-rule:nonzero;fill:#ffffff;fill-opacity:1;" d="M 143.222656 141.625 L 113.875 141.625 C 111.582031 141.625 109.722656 139.765625 109.722656 137.472656 C 109.722656 135.175781 111.582031 133.316406 113.875 133.316406 L 143.222656 133.316406 C 145.515625 133.316406 147.375 135.175781 147.375 137.472656 C 147.375 139.765625 145.515625 141.625 143.222656 141.625 Z M 143.222656 141.625 "></path><g clip-rule="nonzero" clip-path="url(#23ca059e0a)"><path style=" stroke:none;fill-rule:nonzero;fill:#ffffff;fill-opacity:1;" d="M 84.472656 161.152344 L 70.992188 161.152344 C 68.699219 161.152344 66.839844 159.292969 66.839844 157 L 66.839844 137.472656 C 66.839844 135.175781 68.699219 133.316406 70.992188 133.316406 L 84.472656 133.316406 C 86.765625 133.316406 88.625 135.175781 88.625 137.472656 C 88.625 139.765625 86.765625 141.625 84.472656 141.625 L 75.148438 141.625 L 75.148438 152.84375 L 84.472656 152.84375 C 86.765625 152.84375 88.625 154.703125 88.625 157 C 88.625 159.292969 86.765625 161.152344 84.472656 161.152344 Z M 84.472656 161.152344 "></path></g><path style=" stroke:none;fill-rule:nonzero;fill:#ffffff;fill-opacity:1;" d="M 303.601562 235.257812 L 290.121094 235.257812 C 287.828125 235.257812 285.96875 233.398438 285.96875 231.105469 C 285.96875 228.8125 287.828125 226.953125 290.121094 226.953125 L 299.449219 226.953125 L 299.449219 215.730469 L 290.121094 215.730469 C 287.828125 215.730469 285.96875 213.871094 285.96875 211.578125 C 285.96875 209.285156 287.828125 207.425781 290.121094 207.425781 L 303.601562 207.425781 C 305.894531 207.425781 307.753906 209.285156 307.753906 211.578125 L 307.753906 231.105469 C 307.753906 233.398438 305.894531 235.257812 303.601562 235.257812 Z M 303.601562 235.257812 "></path><path style=" stroke:none;fill-rule:nonzero;fill:#ffffff;fill-opacity:1;" d="M 201.96875 215.730469 L 172.625 215.730469 C 170.332031 215.730469 168.46875 213.871094 168.46875 211.578125 C 168.46875 209.285156 170.332031 207.425781 172.625 207.425781 L 201.96875 207.425781 C 204.265625 207.425781 206.125 209.285156 206.125 211.578125 C 206.125 213.871094 204.265625 215.730469 201.96875 215.730469 Z M 201.96875 215.730469 "></path><path style=" stroke:none;fill-rule:nonzero;fill:#ffffff;fill-opacity:1;" d="M 201.96875 235.257812 L 172.625 235.257812 C 170.332031 235.257812 168.46875 233.398438 168.46875 231.105469 C 168.46875 228.8125 170.332031 226.953125 172.625 226.953125 L 201.96875 226.953125 C 204.265625 226.953125 206.125 228.8125 206.125 231.105469 C 206.125 233.398438 204.265625 235.257812 201.96875 235.257812 Z M 201.96875 235.257812 "></path><g clip-rule="nonzero" clip-path="url(#c5c981c7a0)"><path style=" stroke:none;fill-rule:nonzero;fill:#ffffff;fill-opacity:1;" d="M 84.472656 235.257812 L 70.992188 235.257812 C 68.699219 235.257812 66.839844 233.398438 66.839844 231.105469 L 66.839844 211.578125 C 66.839844 209.285156 68.699219 207.425781 70.992188 207.425781 L 84.472656 207.425781 C 86.765625 207.425781 88.625 209.285156 88.625 211.578125 C 88.625 213.871094 86.765625 215.730469 84.472656 215.730469 L 75.148438 215.730469 L 75.148438 226.953125 L 84.472656 226.953125 C 86.765625 226.953125 88.625 228.8125 88.625 231.105469 C 88.625 233.398438 86.765625 235.257812 84.472656 235.257812 Z M 84.472656 235.257812 "></path></g><path style=" stroke:none;fill-rule:nonzero;fill:#ffffff;fill-opacity:1;" d="M 143.222656 215.730469 L 113.875 215.730469 C 111.582031 215.730469 109.722656 213.871094 109.722656 211.578125 C 109.722656 209.285156 111.582031 207.425781 113.875 207.425781 L 143.222656 207.425781 C 145.515625 207.425781 147.375 209.285156 147.375 211.578125 C 147.375 213.871094 145.515625 215.730469 143.222656 215.730469 Z M 143.222656 215.730469 "></path><path style=" stroke:none;fill-rule:nonzero;fill:#ffffff;fill-opacity:1;" d="M 143.222656 235.257812 L 113.875 235.257812 C 111.582031 235.257812 109.722656 233.398438 109.722656 231.105469 C 109.722656 228.8125 111.582031 226.953125 113.875 226.953125 L 143.222656 226.953125 C 145.515625 226.953125 147.375 228.8125 147.375 231.105469 C 147.375 233.398438 145.515625 235.257812 143.222656 235.257812 Z M 143.222656 235.257812 "></path><path style=" stroke:none;fill-rule:nonzero;fill:#ffffff;fill-opacity:1;" d="M 260.71875 215.730469 L 231.375 215.730469 C 229.078125 215.730469 227.21875 213.871094 227.21875 211.578125 C 227.21875 209.285156 229.078125 207.425781 231.375 207.425781 L 260.71875 207.425781 C 263.015625 207.425781 264.875 209.285156 264.875 211.578125 C 264.875 213.871094 263.011719 215.730469 260.71875 215.730469 Z M 260.71875 215.730469 "></path><path style=" stroke:none;fill-rule:nonzero;fill:#ffffff;fill-opacity:1;" d="M 260.71875 235.257812 L 231.375 235.257812 C 229.078125 235.257812 227.21875 233.398438 227.21875 231.105469 C 227.21875 228.8125 229.078125 226.953125 231.375 226.953125 L 260.71875 226.953125 C 263.015625 226.953125 264.875 228.8125 264.875 231.105469 C 264.875 233.398438 263.011719 235.257812 260.71875 235.257812 Z M 260.71875 235.257812 "></path><g clip-rule="nonzero" clip-path="url(#b6b42cf7fd)"><path style=" stroke:none;fill-rule:nonzero;fill:#ffffff;fill-opacity:1;" d="M 172.625 276.160156 L 143.21875 276.160156 C 140.925781 276.160156 139.066406 274.300781 139.066406 272.007812 L 139.066406 116.640625 C 139.066406 115.757812 139.347656 114.898438 139.871094 114.1875 L 154.570312 94.117188 C 155.355469 93.046875 156.597656 92.417969 157.921875 92.417969 C 159.246094 92.417969 160.492188 93.046875 161.273438 94.117188 L 175.976562 114.1875 C 176.496094 114.898438 176.777344 115.757812 176.777344 116.640625 L 176.777344 272.007812 C 176.777344 274.300781 174.917969 276.160156 172.625 276.160156 Z M 147.375 267.851562 L 168.472656 267.851562 L 168.472656 118 L 157.921875 103.601562 L 147.375 118 Z M 147.375 267.851562 "></path></g><g clip-rule="nonzero" clip-path="url(#24571a1575)"><path style=" stroke:none;fill-rule:nonzero;fill:#ffffff;fill-opacity:1;" d="M 113.875 276.160156 L 84.46875 276.160156 C 82.175781 276.160156 80.316406 274.300781 80.316406 272.007812 L 80.316406 116.640625 C 80.316406 115.757812 80.597656 114.898438 81.121094 114.1875 L 95.820312 94.117188 C 96.605469 93.046875 97.847656 92.417969 99.171875 92.417969 C 100.496094 92.417969 101.742188 93.046875 102.523438 94.117188 L 117.226562 114.1875 C 117.746094 114.898438 118.027344 115.757812 118.027344 116.640625 L 118.027344 272.007812 C 118.027344 274.300781 116.167969 276.160156 113.875 276.160156 Z M 88.625 267.851562 L 109.722656 267.851562 L 109.722656 118 L 99.171875 103.601562 L 88.625 118 Z M 88.625 267.851562 "></path></g><g clip-rule="nonzero" clip-path="url(#8487829ba5)"><path style=" stroke:none;fill-rule:nonzero;fill:#ffffff;fill-opacity:1;" d="M 231.375 276.160156 L 201.96875 276.160156 C 199.675781 276.160156 197.816406 274.300781 197.816406 272.007812 L 197.816406 116.640625 C 197.816406 115.757812 198.097656 114.898438 198.617188 114.1875 L 213.324219 94.117188 C 214.105469 93.046875 215.347656 92.417969 216.671875 92.417969 C 217.996094 92.417969 219.242188 93.046875 220.023438 94.117188 L 234.726562 114.1875 C 235.246094 114.898438 235.527344 115.757812 235.527344 116.640625 L 235.527344 272.007812 C 235.527344 274.300781 233.667969 276.160156 231.375 276.160156 Z M 206.125 267.851562 L 227.222656 267.851562 L 227.222656 118 L 216.671875 103.601562 L 206.125 118 Z M 206.125 267.851562 "></path></g><g clip-rule="nonzero" clip-path="url(#65393934aa)"><path style=" stroke:none;fill-rule:nonzero;fill:#ffffff;fill-opacity:1;" d="M 290.125 276.160156 L 260.71875 276.160156 C 258.425781 276.160156 256.566406 274.300781 256.566406 272.007812 L 256.566406 116.640625 C 256.566406 115.757812 256.847656 114.898438 257.367188 114.1875 L 272.070312 94.117188 C 272.851562 93.046875 274.097656 92.417969 275.421875 92.417969 C 276.746094 92.417969 277.992188 93.046875 278.773438 94.117188 L 293.472656 114.1875 C 293.996094 114.898438 294.277344 115.757812 294.277344 116.640625 L 294.277344 272.007812 C 294.277344 274.300781 292.417969 276.160156 290.125 276.160156 Z M 264.871094 267.851562 L 285.96875 267.851562 L 285.96875 118 L 275.421875 103.601562 L 264.875 118 L 264.875 267.851562 Z M 264.871094 267.851562 "></path></g><g clip-rule="nonzero" clip-path="url(#2bcd6e07d4)"><path style=" stroke:none;fill-rule:nonzero;fill:#ffffff;fill-opacity:1;" d="M 303.601562 276.160156 L 70.992188 276.160156 C 68.699219 276.160156 66.839844 274.300781 66.839844 272.007812 C 66.839844 269.710938 68.699219 267.851562 70.992188 267.851562 L 303.601562 267.851562 C 305.894531 267.851562 307.753906 269.710938 307.753906 272.007812 C 307.753906 274.300781 305.894531 276.160156 303.601562 276.160156 Z M 303.601562 276.160156 "></path></g></g></svg>