<svg xmlns="http://www.w3.org/2000/svg" xmlns:xlink="http://www.w3.org/1999/xlink" width="500" zoomAndPan="magnify" viewBox="0 0 375 374.999991" height="500" preserveAspectRatio="xMidYMid meet"><defs><clipPath id="7fe02311fb"><path d="M 187.5 0 C 83.945312 0 0 83.945312 0 187.5 C 0 291.054688 83.945312 375 187.5 375 C 291.054688 375 375 291.054688 375 187.5 C 375 83.945312 291.054688 0 187.5 0 Z M 187.5 0 "></path></clipPath><clipPath id="08c848c863"><path d="M 187.5 0 C 83.945312 0 0 83.945312 0 187.5 C 0 291.054688 83.945312 375 187.5 375 C 291.054688 375 375 291.054688 375 187.5 C 375 83.945312 291.054688 0 187.5 0 Z M 187.5 0 "></path></clipPath><clipPath id="19024f7af8"><rect x="0" width="375" y="0" height="375"></rect></clipPath><clipPath id="5e2fdc0737"><path d="M 77.6875 86.738281 L 297.4375 86.738281 L 297.4375 283 L 77.6875 283 Z M 77.6875 86.738281 "></path></clipPath></defs><g id="ea6fe7d5ab"><g clip-rule="nonzero" clip-path="url(#7fe02311fb)"><g transform="matrix(1,0,0,1,0,0)"><g clip-path="url(#19024f7af8)"><g clip-rule="nonzero" clip-path="url(#08c848c863)"><rect x="0" width="375" height="375" y="0" style="fill:#ffd0d0;fill-opacity:1;stroke:none;"></rect></g></g></g></g><g clip-rule="nonzero" clip-path="url(#5e2fdc0737)"><path style=" stroke:none;fill-rule:evenodd;fill:#d81313;fill-opacity:1;" d="M 123.183594 205.128906 L 123.183594 260.910156 C 123.183594 261.050781 123.238281 261.171875 123.34375 261.261719 C 123.449219 261.355469 123.578125 261.390625 123.714844 261.371094 C 158.03125 256.433594 186.832031 238.265625 216.890625 234.367188 C 217.121094 234.339844 217.292969 234.144531 217.292969 233.910156 L 217.292969 212.613281 C 217.292969 212.476562 217.242188 212.359375 217.140625 212.269531 C 217.039062 212.179688 216.917969 212.136719 216.785156 212.152344 C 196.210938 214.136719 182.375 205.953125 175.390625 195.027344 C 163.601562 176.589844 171.675781 150.953125 197.65625 150.433594 C 197.875 150.429688 198.058594 150.277344 198.101562 150.058594 C 200.878906 136.074219 213.210938 125.761719 227.722656 125.761719 C 242.234375 125.761719 254.5625 136.074219 257.339844 150.058594 C 257.382812 150.277344 257.566406 150.429688 257.789062 150.433594 C 283.765625 150.953125 291.84375 176.589844 280.054688 195.027344 C 272.90625 206.207031 258.585938 214.515625 237.207031 211.996094 C 235.285156 211.769531 233.398438 211.414062 231.546875 210.933594 C 231.335938 210.882812 231.199219 210.699219 231.199219 210.488281 L 231.199219 196.464844 C 231.199219 196.320312 231.257812 196.195312 231.367188 196.105469 L 245.429688 184.625 C 246.917969 183.417969 247.140625 181.234375 245.933594 179.75 C 244.726562 178.265625 242.542969 178.039062 241.058594 179.25 L 231.953125 186.679688 C 231.8125 186.796875 231.628906 186.816406 231.460938 186.738281 C 231.296875 186.660156 231.199219 186.503906 231.199219 186.320312 L 231.199219 174.472656 C 231.199219 174.328125 231.257812 174.203125 231.367188 174.113281 L 243.109375 164.53125 C 244.59375 163.320312 244.820312 161.140625 243.609375 159.65625 C 242.402344 158.171875 240.222656 157.945312 238.738281 159.152344 L 228.011719 167.902344 C 227.839844 168.042969 227.601562 168.042969 227.425781 167.902344 L 216.707031 159.152344 C 215.21875 157.945312 213.039062 158.171875 211.832031 159.65625 C 210.621094 161.140625 210.847656 163.320312 212.332031 164.53125 L 224.074219 174.113281 C 224.1875 174.203125 224.246094 174.328125 224.246094 174.472656 L 224.246094 186.320312 C 224.246094 186.503906 224.144531 186.660156 223.980469 186.738281 C 223.816406 186.820312 223.628906 186.796875 223.488281 186.679688 L 214.382812 179.25 C 212.898438 178.039062 210.714844 178.265625 209.507812 179.75 C 208.300781 181.234375 208.527344 183.417969 210.011719 184.625 L 224.074219 196.105469 C 224.1875 196.195312 224.246094 196.320312 224.246094 196.464844 L 224.246094 233.230469 C 224.246094 233.363281 224.292969 233.476562 224.386719 233.566406 C 224.480469 233.65625 224.597656 233.699219 224.726562 233.695312 C 246.988281 232.796875 270.238281 240.867188 297.160156 268.8125 C 297.3125 268.972656 297.332031 269.207031 297.214844 269.390625 C 297.089844 269.578125 296.859375 269.648438 296.652344 269.5625 C 191.28125 227.546875 159.355469 323.691406 77.9375 259.710938 C 77.761719 259.578125 77.707031 259.34375 77.804688 259.144531 C 77.902344 258.941406 78.125 258.839844 78.339844 258.898438 C 91.664062 262.402344 104.070312 263.179688 115.804688 262.253906 C 116.042969 262.234375 116.230469 262.035156 116.230469 261.792969 L 116.230469 205.128906 C 116.230469 204.875 116.023438 204.664062 115.765625 204.664062 L 83.066406 204.664062 C 82.875 204.664062 82.707031 204.554688 82.636719 204.375 C 82.566406 204.195312 82.609375 204 82.75 203.867188 C 93.894531 193.28125 102.792969 180.84375 107.75 165.160156 C 107.796875 165.007812 107.769531 164.855469 107.671875 164.730469 C 107.574219 164.609375 107.433594 164.546875 107.273438 164.554688 L 87.390625 165.988281 C 87.195312 166.003906 87.023438 165.902344 86.9375 165.730469 C 86.855469 165.554688 86.882812 165.355469 87.015625 165.214844 C 97.375 153.992188 103.847656 140.707031 106.476562 125.378906 C 106.5 125.226562 106.457031 125.085938 106.347656 124.976562 C 106.238281 124.867188 106.097656 124.820312 105.945312 124.84375 L 90.890625 127.238281 C 90.6875 127.269531 90.492188 127.167969 90.402344 126.980469 C 90.3125 126.792969 90.351562 126.578125 90.507812 126.4375 C 102.636719 115.398438 112.351562 102.382812 119.285156 87.09375 C 119.359375 86.921875 119.519531 86.820312 119.707031 86.820312 C 119.890625 86.820312 120.050781 86.921875 120.128906 87.09375 C 127.0625 102.382812 136.777344 115.398438 148.90625 126.4375 C 149.058594 126.578125 149.101562 126.792969 149.011719 126.980469 C 148.921875 127.167969 148.726562 127.269531 148.519531 127.238281 L 133.46875 124.84375 C 133.316406 124.820312 133.171875 124.867188 133.066406 124.976562 C 132.957031 125.085938 132.910156 125.226562 132.9375 125.378906 C 135.5625 140.707031 142.035156 153.992188 152.398438 165.214844 C 152.527344 165.355469 152.558594 165.554688 152.472656 165.726562 C 152.390625 165.902344 152.214844 166.003906 152.023438 165.988281 L 132.136719 164.554688 C 131.980469 164.542969 131.839844 164.605469 131.742188 164.730469 C 131.640625 164.855469 131.613281 165.007812 131.664062 165.160156 C 136.617188 180.84375 145.519531 193.277344 156.664062 203.867188 C 156.804688 204 156.847656 204.195312 156.773438 204.375 C 156.703125 204.554688 156.539062 204.664062 156.34375 204.664062 L 123.644531 204.664062 C 123.390625 204.667969 123.183594 204.875 123.183594 205.128906 Z M 123.183594 205.128906 "></path></g></g></svg>